# xmcd
#
# Track frame offsets: 
#        150
#        14340
#        27329
#        40532
#        53727
#        66768
#        79525
#        93758
#        105878
#        118965
#        131162
#        144952
#        158893
#        170674
#        214933
#
# Disc length: 3029 seconds
#
# Revision: 0
# Processed by: cddbd v1.5.1PL0 Copyright (c) Steve Scherf et al.
# Submitted via: ExactAudioCopy v0.95a5
#
DISCID=c00bd30f
DTITLE=Dinah Washington - Anthology
DYEAR=1900
DGENRE=R&B
TTITLE0=Mellow Mama Blues
TTITLE1=All or Nothing Blues
TTITLE2=Rich Man's Blues
TTITLE3=Chewin' Mama Blues
TTITLE4=Blues for a Day
TTITLE5=Wise Woman Blues
TTITLE6=My Voot Is Really Vout
TTITLE7=Pacific Coast Blues
TTITLE8=Beggin' Mama Blues
TTITLE9=Walking Blues
TTITLE10=No Voot No Bout
TTITLE11=My Lovin' Papa
TTITLE12=Shoo Shoo Baby
TTITLE13=Lover Come Back to Me
TTITLE14=Unforgettable
EXTD=
EXTT0=
EXTT1=
EXTT2=
EXTT3=
EXTT4=
EXTT5=
EXTT6=
EXTT7=
EXTT8=
EXTT9=
EXTT10=
EXTT11=
EXTT12=
EXTT13=
EXTT14=
PLAYORDER=
